<svg xmlns="http://www.w3.org/2000/svg" viewBox="0 0 542.03 281.64"><defs><style>.cls-1{fill:#816aae;}.cls-2{fill:#8968aa;}</style></defs><g id="Camada_2" data-name="Camada 2"><g id="Camada_1-2" data-name="Camada 1"><path class="cls-1" d="M276.72,181.7c1-.25,1.83-.42,2.71-.6l-.06-13-.61.1q-2.62.48-5.13,1.11c-19.38,4.88-37,13.83-53.83,24.41l17.34,4.47C249.64,191.15,262.75,185.22,276.72,181.7Z"/><path class="cls-1" d="M242.25,201.06l-6.92-1.84-17.1-4.49c-19.08-4.95-37.71-9.59-55.4-13.44-18.3-4-35.77-7.22-52-9.21-1.59-.19-3.1-.3-4.66-.47-17.94-2-34.41-2.37-48.7-.46-15.85,2.11-29.13,7-39.08,15.5A58.62,58.62,0,0,0,8,198.16a46.42,46.42,0,0,0-6.26,13.11A41.39,41.39,0,0,0,.1,225.73,42.93,42.93,0,0,0,3.64,240a50.07,50.07,0,0,0,8.21,12.81,58.88,58.88,0,0,0,7.23,6.82,62,62,0,0,0,5,3.8,80.62,80.62,0,0,0,22.56,10.25,108.83,108.83,0,0,0,26.9,4c23.95.69,45-5.5,64.67-15.15,29.49-14.48,81.22-53.4,80.7-53.05l-16.39-4.23c.51-.36-2.51,1.73-4.47,3.12-21,14.86-41.77,31-64.9,42.46-18.2,9-37.56,14.78-59.27,14.14-19.42-1.14-33.55-8.39-41.92-18.11C9.44,220.75,29,176.56,102,183.9c2.39.25,4.78.48,7.29.84,15.14,1.85,31.41,4.81,48.44,8.47,15,3.23,30.47,7,46.27,11l16.42,4.24,8.56,2.26,10,2.65c14.13,3.76,41.06,12.23,40.59,12.07l-.06-13.38C267.2,208.12,254.79,204.39,242.25,201.06Z"/><path class="cls-2" d="M314.31,241.64h0c-11,38.08-20.41,12.49-20.56-11.59l-.06-13.43-.14-34h0l-.07-15.24c0-3.15,0-6.9,0-11.08.25-42.82,2.22-134,3.66-156.29-17.81.08-20.55,14.49-20.31,33.28.48,38.28,2.86,93.66,3.68,123,.12,4.53.22,8.48.26,11.61l0,12.89.06,16.2h0l.07,15.49.06,13.39.06,11.57a71.23,71.23,0,0,0,2.45,17.44,52.59,52.59,0,0,0,6.22,14.86c4.68,7.16,12.34,12.22,21.11,5.92a27.66,27.66,0,0,0,7.4-8.9,80.84,80.84,0,0,0,6.15-14.4c.79-2.36,1.5-4.75,2.11-7.15.31-1.23.68-2.92.57-2.46L315,238.68C315.08,238.21,314.66,240.23,314.31,241.64Z"/><path class="cls-1" d="M295,180.36h0l-.1,0Z"/><path class="cls-1" d="M317,222.94l12.57,4.31c2.12-24.54-4-54.88-32.7-59.48a18,18,0,0,0-2-.23l.05,12.82C314.72,186.56,316.31,203.67,317,222.94Z"/><path class="cls-1" d="M357.82,236.5Z"/><path class="cls-1" d="M315.12,153.39c7.08,25.06,27.65,78.72,27.45,78.15l15.25,5c-.11-.27-.38-1-.62-1.67-.52-1.44-1.13-3.2-1.83-5.25-15.63-45.81-24.87-76.8-34.89-124.59-15.75,5.62-13.56,18-9,35.37C313,146,314.46,151,315.12,153.39Z"/><path class="cls-1" d="M389.79,264.47c-12.62,8.8-18.14,1.89-23.83-9l-16.39-5.25c-.23-.55,10.65,21.24,16.51,26.2,14.61,12.37,29.89.34,41.31-9.8L392,262.8C391.74,263,390.67,263.86,389.79,264.47Z"/><path class="cls-1" d="M392,262.8h0C392.13,262.72,392.14,262.71,392,262.8Z"/><path class="cls-1" d="M539.49,211a24,24,0,0,0-7.77-9.1c-5.31-3.8-12.76-6.09-22.43-6-8.34,0-18.39,1.81-30.2,5.85-10.54,3.59-28.42,13.5-28.42,13.5h-.05c-17.54,10.54-31.41,23.22-42.93,33.88h0l-1.38,1.27,15.1,3.41c-.44.4,14.12-12.77,23.5-19.6,4.46-3.31,13.12-8.85,13.12-8.85,44.66-26.65,70.86-7.54,64,11.7-2.76,7.74-10.82,15.49-25.23,20.29-10.14,3.62-22.44,5.34-36.66,3.91-7.78-.78-15.53-1.84-23.25-3.13q-8.48-1.42-16.8-3.18L405,251.5q-11.77-2.9-23.28-6.22t-23.29-7.09l-15.28-5-5-1.65-8.75-2.94L317,224.44l-11.58-3.9-10.35-3.45.05,13.43,7.25,2.42,12.88,4.35,12.14,4.09,9.66,3.22c4.15,1.38,8.11,2.68,11.74,3.86L365,253.58q6.84,2.1,13.65,4.06,7.32,2.1,14.71,4.05l15.21,3.74c7.93,1.83,15.93,3.47,24,4.87,8.59,1.48,17.33,2.7,26.24,3.59,16.4,1.64,30.7-.42,42.57-4.73,11.57-4.2,23-11.58,30.8-21.48A48,48,0,0,0,539.6,235a35.15,35.15,0,0,0,2.43-12.1A26.09,26.09,0,0,0,539.49,211Z"/></g></g></svg>