<svg xmlns="http://www.w3.org/2000/svg" viewBox="0 0 522.65 135.42"><g id="Camada_2" data-name="Camada 2"><g id="Camada_1-2" data-name="Camada 1"><path d="M42.85,118.8a18.37,18.37,0,0,0,5.85-1.16,16.49,16.49,0,0,0,6.43-4.32,25.07,25.07,0,0,0,5.18-9c1.4-3.91,2.1-8.92,2.1-15.07s-.71-11.17-2.12-15.06a25.07,25.07,0,0,0-5.18-9,16.59,16.59,0,0,0-6.44-4.32,18.56,18.56,0,0,0-5.85-1.14A18.28,18.28,0,0,0,37,60.84a16.41,16.41,0,0,0-6.43,4.32,25.06,25.06,0,0,0-5.18,9Q23.24,80,23.26,89.25c0,6.15.7,11.16,2.11,15.07a25.25,25.25,0,0,0,5.19,9A16.68,16.68,0,0,0,37,117.65a18.38,18.38,0,0,0,5.86,1.15M141,93.6q-2.49-.37-5.66-.76a54.39,54.39,0,0,0-6.42-.38,45.75,45.75,0,0,0-5.19.29,20.79,20.79,0,0,0-4.6,1.06,14.48,14.48,0,0,0-7.3,4.8,9.62,9.62,0,0,0-1.53,2.59,12.8,12.8,0,0,0-.77,3.17,6.16,6.16,0,0,0-.19,1.73,16.53,16.53,0,0,0,.58,4.12,9.91,9.91,0,0,0,2.31,4.12,11.79,11.79,0,0,0,4.51,3.27,19.55,19.55,0,0,0,8,1.35,10.43,10.43,0,0,0,2.29-.2,16.94,16.94,0,0,0,9.41-3.08,12.24,12.24,0,0,0,3.26-2.79,18.7,18.7,0,0,0,2.3-3.54,24.42,24.42,0,0,0,2.88-7.5,36.18,36.18,0,0,0,.76-7.09.44.44,0,0,1-.29-.09.3.3,0,0,0-.29-.1c-.5-.14-1.08-.26-1.72-.38S141.88,93.86,141,93.6Zm-39.72-9.19A39.74,39.74,0,0,1,113,79.52a55.35,55.35,0,0,1,13.62-1.64,62.15,62.15,0,0,1,19,2.87,36.69,36.69,0,0,0-2.5-10.56,16.75,16.75,0,0,0-7.49-8.63,17.55,17.55,0,0,0-4.13-1.44,24.92,24.92,0,0,0-5.09-.47h-2.11a30.17,30.17,0,0,0-5.37.86c-8.36,2.1-12.73,8.08-25.14-1.62,12-14.32,32.55-20.12,49.89-12.59A39.27,39.27,0,0,1,156.33,55q10.93,11.9,11.33,31.29v1.52q0,20-10.15,32.45a40.44,40.44,0,0,1-12,10,42,42,0,0,1-15.65,4.8,14.77,14.77,0,0,1-2.3.19h-2.5a57.14,57.14,0,0,1-8.44-.66A32.85,32.85,0,0,1,108,132a32.9,32.9,0,0,1-8.06-4.51,23.27,23.27,0,0,1-6.14-7.19,25.5,25.5,0,0,1-3.85-13.63v-1.15A23.51,23.51,0,0,1,93,93.05,24.11,24.11,0,0,1,101.26,84.41Zm127.48,32a6.05,6.05,0,0,0,.19,1.34,11.67,11.67,0,0,1,.39,2.87,12.71,12.71,0,0,1-1.53,6.24,14.13,14.13,0,0,1-4.21,4.71,21.9,21.9,0,0,1-13.06,3.85,29.08,29.08,0,0,1-12.47-2.88,33.52,33.52,0,0,1-11.14-8.63,43.34,43.34,0,0,1-8-14.3,60.74,60.74,0,0,1-3-20l.16-55.48q0-11.51,6.14-16.51c4.09-3.33,10-5,17.85-5-.14.89-.26,2.11-.39,3.64s-.22,3.3-.28,5.67-.09,5.46-.09,9.31l.19,12.08h25.73q0,8.64-4.79,13.83t-13.63,5.18h-7.3l-.17,27.26a54,54,0,0,0,1.44,13.53,26.71,26.71,0,0,0,3.95,8.92,16.31,16.31,0,0,0,13.43,6.52,25.71,25.71,0,0,0,6.91-1C226.38,117.17,227.59,116.79,228.74,116.41Zm57.74,0a5.51,5.51,0,0,0,.19,1.34,11.68,11.68,0,0,1,.39,2.88,12.59,12.59,0,0,1-1.54,6.23,14.06,14.06,0,0,1-4.22,4.71,21.85,21.85,0,0,1-13.05,3.85,29.08,29.08,0,0,1-12.47-2.88,33.49,33.49,0,0,1-11.14-8.63,43.24,43.24,0,0,1-8-14.3,61,61,0,0,1-3-20l.16-55.47q0-11.52,6.14-16.51t17.84-5c-.13.9-.25,2.11-.38,3.64s-.22,3.3-.29,5.67-.09,5.46-.09,9.31l.2,12.08H283q0,8.66-4.79,13.83t-13.63,5.18h-7.29l-.18,27.27a54,54,0,0,0,1.45,13.52,26.9,26.9,0,0,0,3.93,8.92,16.33,16.33,0,0,0,13.44,6.52,25.65,25.65,0,0,0,6.91-1C284.11,117.14,285.33,116.76,286.48,116.38Zm87.28-22.69q0,12.86-3.84,20.92a33.94,33.94,0,0,1-9.87,12.67,35,35,0,0,1-13.53,6.34,63.82,63.82,0,0,1-29.56,0,34.9,34.9,0,0,1-13.53-6.32,33,33,0,0,1-9.8-12.67q-3.74-8-3.75-20.91l.18-27.06q0-11.51,6.23-16.42t18.13-4.9c-.13.77-.26,1.92-.38,3.45s-.22,3.33-.28,5.76-.1,5.57-.1,9.4l.21,29.75a44.49,44.49,0,0,0,1.54,13,19,19,0,0,0,4.13,7.58,13.3,13.3,0,0,0,5.77,3.66,22.29,22.29,0,0,0,6.42,1,22.72,22.72,0,0,0,6.43-1,13.33,13.33,0,0,0,5.76-3.66,18.76,18.76,0,0,0,4.11-7.58,43.86,43.86,0,0,0,1.54-13l.18-27.06q0-11.51,6.32-16.41c4.22-3.27,10.31-4.91,18.23-4.91-.12.77-.25,1.93-.38,3.46s-.22,3.33-.28,5.76-.1,5.56-.1,9.39Zm64.53,22.62a5.51,5.51,0,0,0,.19,1.34,12.13,12.13,0,0,1,.38,2.87,12.6,12.6,0,0,1-1.53,6.24,14.16,14.16,0,0,1-4.22,4.71,21.85,21.85,0,0,1-13.05,3.85,29.09,29.09,0,0,1-12.48-2.88,33.82,33.82,0,0,1-11.14-8.63,43.44,43.44,0,0,1-8-14.3,61,61,0,0,1-3-20.05L385.66,34q0-11.51,6.13-16.51t17.85-5c-.13.89-.26,2.11-.39,3.64s-.22,3.3-.28,5.66-.09,5.47-.09,9.31l.2,12.09h25.71q0,8.64-4.79,13.82t-13.63,5.19h-7.28l-.18,27.26A54.08,54.08,0,0,0,410.35,103a27.11,27.11,0,0,0,3.94,8.92,16.38,16.38,0,0,0,13.44,6.52,25.76,25.76,0,0,0,6.91-1C435.91,117.07,437.13,116.69,438.29,116.31ZM496,93.43c-1.66-.25-3.56-.5-5.67-.76a54.39,54.39,0,0,0-6.42-.38,43.26,43.26,0,0,0-5.18.29,20.2,20.2,0,0,0-4.61,1.06,14.35,14.35,0,0,0-7.29,4.8,9.62,9.62,0,0,0-1.53,2.59,12.37,12.37,0,0,0-.78,3.17,6.18,6.18,0,0,0-.18,1.73,16.14,16.14,0,0,0,.58,4.12,9.78,9.78,0,0,0,2.3,4.12,11.87,11.87,0,0,0,4.51,3.27,19.4,19.4,0,0,0,8,1.34,10.11,10.11,0,0,0,2.3-.19,16.93,16.93,0,0,0,9.4-3.08,12.29,12.29,0,0,0,3.26-2.79,18.58,18.58,0,0,0,2.31-3.54,24.65,24.65,0,0,0,2.87-7.5,35.45,35.45,0,0,0,.76-7.1.44.44,0,0,1-.28-.08.35.35,0,0,0-.29-.11c-.51-.13-1.09-.25-1.73-.38S496.87,93.69,496,93.43Zm-39.73-9.19A39.85,39.85,0,0,1,468,79.35a55.37,55.37,0,0,1,13.63-1.64,62.08,62.08,0,0,1,19,2.86A36.7,36.7,0,0,0,498.08,70a16.71,16.71,0,0,0-7.49-8.63A17.55,17.55,0,0,0,486.46,60a23.49,23.49,0,0,0-5.08-.47h-2.11a30.28,30.28,0,0,0-5.38.86c-8.36,2.1-12.72,8.07-25.14-1.62,12-14.32,32.55-20.12,49.89-12.59a39.27,39.27,0,0,1,12.68,8.72q10.94,11.9,11.33,31.28v1.53q0,20-10.15,32.45a40.31,40.31,0,0,1-12,10,42,42,0,0,1-15.64,4.8,14.89,14.89,0,0,1-2.31.19h-2.49a57,57,0,0,1-8.44-.66,33.29,33.29,0,0,1-8.65-2.59,32.83,32.83,0,0,1-8.05-4.51,23.16,23.16,0,0,1-6.15-7.19,25.53,25.53,0,0,1-3.85-13.63v-1.15A23.51,23.51,0,0,1,448,92.88,24.2,24.2,0,0,1,456.25,84.24ZM23.43,47.79a41.36,41.36,0,0,1,19.38-4.43A39,39,0,0,1,59.61,47a44,44,0,0,1,13.53,9.78A46.68,46.68,0,0,1,85.82,89.41a51.23,51.23,0,0,1-3.06,17.76,46.17,46.17,0,0,1-8.63,14.69,41.35,41.35,0,0,1-13.52,9.79,42.18,42.18,0,0,1-17.75,3.65,39.2,39.2,0,0,1-16.8-3.63,44.22,44.22,0,0,1-13.54-9.78A46.22,46.22,0,0,1,3.4,107.4,47.81,47.81,0,0,1,0,89.45L0,21.33C0,13.64,2.07,8.18,6.23,4.91S16.43,0,24.36,0c-.12.78-.25,1.93-.38,3.46s-.22,3.33-.29,5.76-.08,5.56-.08,9.4v6.05q0,4.32-.09,9.12c-.07,3.19-.1,6.14-.1,8.82Z"/></g></g></svg>